<svg width="540" height="325" viewBox="0 0 540 325" fill="none" xmlns="http://www.w3.org/2000/svg">
<g clip-path="url(#clip0)">
<path d="M367.372 185.455L372.003 184.655C372.447 184.577 372.888 184.482 373.331 184.402C366.003 179.857 360.439 172.957 357.555 164.835C354.671 156.714 354.638 147.854 357.461 139.711C360.284 131.568 365.796 124.626 373.09 120.027C380.385 115.427 389.029 113.444 397.601 114.401L391.532 128.829L405.911 116.286C405.945 116.294 405.977 116.305 406.009 116.318C410.718 117.975 415.054 120.542 418.769 123.873C422.484 127.204 425.507 131.233 427.663 135.731C429.82 140.228 431.069 145.106 431.339 150.086C431.608 155.066 430.893 160.05 429.235 164.754C428.994 165.438 428.708 166.091 428.433 166.752C432.492 164.715 436.386 162.343 439.562 159.306C445.991 153.151 449.513 144.658 453.45 134.195C461.248 113.46 468.756 92.4246 475.965 71.3437C468.014 67.0455 461.858 60.056 458.602 51.6307C455.346 43.2053 455.204 33.8963 458.201 25.3757C458.588 24.2794 459.035 23.2239 459.509 22.1871C459.628 21.9277 459.747 21.6699 459.871 21.4142C460.353 20.4202 460.862 19.4464 461.421 18.5118C461.512 18.3586 461.614 18.2152 461.707 18.0637C462.193 17.2757 462.706 16.511 463.245 15.7696C463.446 15.4913 463.646 15.2137 463.854 14.942C464.465 14.1437 465.098 13.367 465.765 12.6255C465.988 12.3773 466.224 12.1455 466.453 11.9038C466.966 11.3634 467.493 10.8393 468.034 10.3316C468.319 10.0643 468.601 9.795 468.893 9.53716C468.968 9.47101 469.038 9.39881 469.114 9.3332C469.118 9.33804 469.121 9.34324 469.124 9.34802C475.82 3.51885 484.348 0.217759 493.228 0.0184901C502.107 -0.180779 510.775 2.73436 517.726 8.25727L509.828 27.032L524.044 14.6383C529.019 20.9703 531.838 28.7248 532.091 36.7704C532.344 44.8161 530.016 52.7319 525.449 59.3632C525.462 59.3678 525.475 59.3714 525.489 59.376C525.333 59.6038 525.157 59.8124 524.997 60.0362C524.698 60.4563 524.391 60.8689 524.077 61.2741C523.673 61.7936 523.253 62.2957 522.825 62.791C522.502 63.1648 522.183 63.5418 521.847 63.9014C521.355 64.4274 520.839 64.9255 520.32 65.4208C520.017 65.7098 519.727 66.0133 519.415 66.2916C518.598 67.0208 517.753 67.7127 516.879 68.3673C516.573 68.5966 516.249 68.7988 515.937 69.0184C515.323 69.4494 514.707 69.8741 514.07 70.2675C513.675 70.5115 513.269 70.7345 512.866 70.9638C512.282 71.2961 511.694 71.618 511.094 71.9188C510.668 72.1319 510.239 72.3343 509.806 72.5315C509.189 72.8121 508.565 73.0724 507.934 73.3201C507.511 73.4862 507.09 73.6544 506.661 73.8055C505.953 74.0546 505.235 74.271 504.512 74.4782C504.147 74.5829 503.788 74.7027 503.42 74.7965C502.336 75.0727 501.24 75.3079 500.131 75.488C499.923 75.522 499.71 75.5348 499.501 75.5652C498.582 75.6989 497.658 75.8067 496.726 75.8726C496.326 75.9007 495.923 75.9048 495.521 75.9204C494.768 75.9497 494.015 75.9646 493.257 75.9484C492.815 75.9391 492.373 75.9162 491.93 75.8913C491.192 75.8496 490.454 75.7854 489.715 75.6987C489.278 75.6481 488.842 75.5979 488.405 75.5318C487.613 75.4117 486.822 75.2548 486.03 75.0829C485.979 75.0716 485.927 75.0648 485.875 75.0533C482.832 83.947 479.733 92.8217 476.578 101.677C480.426 98.2203 484.941 95.5852 489.845 93.9339C494.75 92.2826 499.94 91.6499 505.098 92.0747C510.256 92.4995 515.272 93.9727 519.84 96.404C524.407 98.8353 528.429 102.173 531.659 106.213L518.517 120.733L536.311 113.637C540.633 122.691 541.18 133.089 537.831 142.546C536.671 145.869 535.046 149.011 533.003 151.879C528.607 158.091 522.443 162.84 515.312 165.511C508.181 168.181 500.411 168.649 493.011 166.853C485.61 165.058 478.92 161.083 473.809 155.443C468.698 149.803 465.401 142.759 464.346 135.224C464.011 136.117 463.688 137.02 463.353 137.911C459.879 147.142 455.558 158.63 446.879 166.936C440.996 172.566 433.758 176.137 426.814 179.157C422.292 181.123 417.71 182.94 413.068 184.61C407.907 187.736 402.076 189.592 396.056 190.026C388.731 192.059 381.314 193.756 373.827 195.066L369.159 195.87C364.963 196.588 360.662 197.327 356.392 198.179C357.007 198.361 357.623 198.535 358.234 198.75C365.841 201.425 372.4 206.447 376.963 213.09C381.526 219.733 383.857 227.654 383.618 235.707L354.352 244.681L380.834 248.883C378.412 254.831 374.52 260.068 369.522 264.106C364.524 268.143 358.583 270.85 352.254 271.972C345.925 273.094 339.415 272.595 333.332 270.522C327.248 268.449 321.79 264.87 317.467 260.118C317.735 261.017 318.005 261.916 318.276 262.813C318.814 264.595 319.347 266.368 319.859 268.123C326.828 292.044 323.829 310.861 311.413 321.105L304.676 312.958C316.76 302.986 313.011 282.438 309.703 271.075C309.2 269.351 308.675 267.61 308.147 265.859C303.608 250.796 298.463 233.722 305.127 218.032C315.17 194.384 344.115 189.433 367.372 185.455Z" fill="#F2F2F2"/>
<path d="M358.795 324.174H153.743C147.018 324.174 140.569 321.505 135.815 316.755C131.06 312.005 128.389 305.563 128.389 298.845V204.992C128.389 203.629 128.667 202.28 129.205 201.028C129.744 199.776 130.533 198.647 131.523 197.709L240.18 94.8117C244.525 90.6977 250.283 88.4045 256.269 88.4045C262.255 88.4045 268.013 90.6977 272.357 94.8117L375.956 192.919C378.544 195.37 380.605 198.322 382.014 201.594C383.423 204.867 384.149 208.392 384.149 211.955V298.845C384.149 302.171 383.493 305.465 382.219 308.538C380.945 311.611 379.077 314.403 376.723 316.755C374.369 319.107 371.574 320.973 368.498 322.246C365.421 323.519 362.125 324.174 358.795 324.174Z" fill="#3F3D56"/>
<path opacity="0.1" d="M128.389 206.533H382.018V308.88C382.018 312.936 380.405 316.826 377.533 319.694C374.662 322.563 370.768 324.174 366.708 324.174H143.698C139.638 324.174 135.744 322.563 132.873 319.694C130.002 316.826 128.389 312.936 128.389 308.88V206.533Z" fill="black"/>
<path d="M336.364 125.887H175.641C167.936 125.887 161.691 132.127 161.691 139.824V300.39C161.691 308.087 167.936 314.326 175.641 314.326H336.364C344.068 314.326 350.314 308.087 350.314 300.39V139.824C350.314 132.127 344.068 125.887 336.364 125.887Z" fill="#F88E40"/>
<path opacity="0.1" d="M350.313 210.765V314.327H161.69V210.765L256.002 256.304L350.313 210.765Z" fill="black"/>
<path d="M256.002 262.16L135.159 203.809C134.411 203.448 133.584 203.283 132.755 203.328C131.927 203.374 131.123 203.629 130.42 204.07C129.716 204.511 129.137 205.123 128.735 205.848C128.333 206.574 128.122 207.39 128.122 208.219V308.613C128.122 310.622 128.518 312.611 129.287 314.466C130.057 316.322 131.185 318.008 132.606 319.428C134.028 320.848 135.715 321.975 137.573 322.744C139.43 323.512 141.421 323.908 143.432 323.908H368.573C370.583 323.908 372.574 323.512 374.431 322.744C376.289 321.975 377.977 320.848 379.398 319.428C380.82 318.008 381.948 316.322 382.717 314.466C383.486 312.611 383.882 310.622 383.882 308.613V209.939C383.882 208.927 383.625 207.932 383.135 207.046C382.644 206.16 381.937 205.414 381.079 204.876C380.221 204.338 379.24 204.027 378.228 203.971C377.217 203.915 376.208 204.117 375.296 204.558L256.002 262.16Z" fill="#3F3D56"/>
<path d="M230.693 143.188H177.942V150.64H230.693V143.188Z" fill="#F2F2F2"/>
<path d="M330.333 170.336H173.679V174.594H330.333V170.336Z" fill="#F2F2F2"/>
<path d="M330.333 184.708H173.679V188.966H330.333V184.708Z" fill="#F2F2F2"/>
<path d="M330.333 199.081H173.679V203.339H330.333V199.081Z" fill="#F2F2F2"/>
<path d="M32.4785 323.908H471.534" stroke="#3F3D56" stroke-miterlimit="10"/>
<path d="M0 258.36C0 289.745 19.7088 315.142 44.065 315.142L0 258.36Z" fill="#46455B"/>
<path d="M44.0649 315.142C44.0649 283.404 66.0588 257.722 93.2389 257.722L44.0649 315.142Z" fill="#F88E40"/>
<path d="M15.9656 261.205C15.9656 291.018 28.5335 315.142 44.065 315.142L15.9656 261.205Z" fill="#F88E40"/>
<path d="M44.0649 315.142C44.0649 274.588 69.4864 241.772 100.902 241.772L44.0649 315.142Z" fill="#46455B"/>
<path d="M34.7949 315.542C34.7949 315.542 41.0441 315.35 42.9274 314.01C44.8107 312.67 52.5402 311.07 53.0074 313.219C53.4746 315.368 62.3987 323.906 55.3434 323.963C48.2882 324.019 38.9502 322.865 37.0704 321.721C35.1907 320.577 34.7949 315.542 34.7949 315.542Z" fill="#A8A8A8"/>
<path opacity="0.2" d="M55.4693 323.215C48.4141 323.271 39.0761 322.117 37.1963 320.973C35.7648 320.102 35.1944 316.976 35.0035 315.534C34.8714 315.539 34.7949 315.542 34.7949 315.542C34.7949 315.542 35.1907 320.577 37.0704 321.721C38.9502 322.865 48.2882 324.019 55.3434 323.962C57.38 323.946 58.0835 323.222 58.0448 322.15C57.7619 322.798 56.9852 323.202 55.4693 323.215Z" fill="black"/>
<path d="M383.487 86.6449C383.167 89.4952 380.991 91.7913 380.185 94.544C378.971 98.6873 381.069 103.133 383.94 106.36C386.256 108.936 389.061 111.028 392.192 112.513C395.324 113.998 398.719 114.848 402.181 115.013C403.198 115.102 404.223 114.99 405.197 114.684C406.066 114.335 406.849 113.8 407.491 113.118C409.653 110.949 410.814 107.944 411.276 104.919C411.739 101.893 411.559 98.8111 411.378 95.7558C411.379 95.1243 411.264 94.4979 411.039 93.9077C410.744 93.3454 410.339 92.8481 409.848 92.4453C408.292 91.0189 406.578 89.7747 404.739 88.7369C403.907 88.3648 403.174 87.8044 402.597 87.1001C402.25 86.4968 402.025 85.8309 401.936 85.1405L401.371 82.2666C401.27 81.4384 400.987 80.6428 400.542 79.937C399.545 78.593 397.637 78.4101 395.964 78.3446L389.834 78.1043C387.927 78.0296 385.414 77.4833 383.553 77.8574C381.814 78.2068 382.392 79.8071 382.707 81.2642C383.165 83.0236 383.427 84.8281 383.487 86.6449Z" fill="#A0616A"/>
<path opacity="0.1" d="M383.487 86.6449C383.167 89.4952 380.991 91.7913 380.185 94.544C378.971 98.6873 381.069 103.133 383.94 106.36C386.256 108.936 389.061 111.028 392.192 112.513C395.324 113.998 398.719 114.848 402.181 115.013C403.198 115.102 404.223 114.99 405.197 114.684C406.066 114.335 406.849 113.8 407.491 113.118C409.653 110.949 410.814 107.944 411.276 104.919C411.739 101.893 411.559 98.8111 411.378 95.7558C411.379 95.1243 411.264 94.4979 411.039 93.9077C410.744 93.3454 410.339 92.8481 409.848 92.4453C408.292 91.0189 406.578 89.7747 404.739 88.7369C403.907 88.3648 403.174 87.8044 402.597 87.1001C402.25 86.4968 402.025 85.8309 401.936 85.1405L401.371 82.2666C401.27 81.4384 400.987 80.6428 400.542 79.937C399.545 78.593 397.637 78.4101 395.964 78.3446L389.834 78.1043C387.927 78.0296 385.414 77.4833 383.553 77.8574C381.814 78.2068 382.392 79.8071 382.707 81.2642C383.165 83.0236 383.427 84.8281 383.487 86.6449Z" fill="black"/>
<path d="M422.485 214.938C421.616 224.452 420.747 233.964 419.879 243.475C419.199 250.959 418.506 258.475 417.173 265.863C416.712 268.409 416.172 270.942 415.532 273.453C413.751 280.425 411.168 287.239 410.334 294.386C410.308 294.592 410.286 294.802 410.264 295.013C410.171 296.593 409.871 298.155 409.374 299.658C408.957 300.749 408.316 301.744 407.865 302.822C406.965 304.978 406.847 307.362 406.737 309.697C403.574 307.92 400.112 306.738 396.521 306.209C394.789 305.951 392.859 305.766 391.679 304.474C390.372 303.045 390.516 300.858 390.736 298.939C391.424 292.979 392.111 287.023 392.797 281.069C393.021 278.507 393.457 275.969 394.1 273.479C394.337 272.651 394.622 271.836 394.911 271.021C395.311 269.899 395.714 268.777 396.017 267.624C396.453 265.762 396.758 263.872 396.929 261.967C397.635 255.972 398.486 249.991 399.232 244L399.272 243.685C400.39 234.605 401.241 225.482 400.995 216.336C400.96 214.982 400.903 213.628 400.816 212.269C400.693 210.302 400.513 209.259 402.145 208.028C403.947 206.669 406.32 205.718 408.382 204.829C409.492 204.347 421.712 200.013 421.998 200.964C422.571 202.992 422.872 205.087 422.892 207.195C422.901 209.782 422.765 212.367 422.485 214.938Z" fill="#605D82"/>
<path opacity="0.1" d="M417.173 265.863C416.712 268.409 416.173 270.942 415.532 273.453C413.751 280.425 411.168 287.239 410.334 294.386C410.308 294.592 410.286 294.802 410.264 295.013C404.816 287.239 400.228 278.878 394.912 271.021C395.311 269.899 395.714 268.777 396.017 267.624C396.453 265.762 396.758 263.872 396.929 261.967C397.636 255.972 398.487 249.991 399.232 244L399.272 243.685C399.584 244.957 400.029 246.192 400.601 247.37C404.171 254.618 412.655 258.282 416.804 265.219C416.931 265.433 417.054 265.648 417.173 265.863Z" fill="black"/>
<path d="M372.966 202.129C373.146 207.942 374.078 213.703 375.007 219.445L376.925 231.291C377.975 237.774 379.068 244.389 382.139 250.196C384.436 254.54 387.746 258.247 390.74 262.144C398.102 271.725 403.632 282.578 410.612 292.439C412.641 295.306 415.541 298.405 419.003 297.807C421.276 297.414 422.927 295.524 424.713 294.067C426.819 292.348 429.357 291.091 431.014 288.937C432.671 286.784 432.996 283.204 430.751 281.671C429.939 281.222 429.076 280.869 428.181 280.621C424.701 279.299 422.449 275.903 421.015 272.47C419.582 269.037 418.714 265.346 416.804 262.153C412.655 255.216 404.17 251.552 400.599 244.302C398.598 240.241 398.408 235.56 398.255 231.037L397.865 219.506C397.822 218.245 397.789 216.933 398.302 215.78C399.668 212.711 403.793 212.425 407.133 212.036C410.923 211.592 414.596 210.435 417.955 208.625C419.878 207.587 421.758 206.264 422.787 204.337C423.726 202.579 423.855 200.517 423.965 198.528L425.122 177.63C425.221 175.832 425.312 173.973 424.678 172.288C423.085 168.056 417.736 166.673 413.214 166.875C404.801 167.251 397.034 170.866 389.101 173.308C387.136 173.927 385.142 174.447 383.124 174.865C381.344 175.222 379.189 175.074 377.491 175.646C374.471 176.663 374.548 183.26 374.12 185.997C373.236 191.327 372.849 196.728 372.966 202.129Z" fill="#605D82"/>
<path d="M417.861 298.683C418.603 299.431 418.845 300.526 419.039 301.56C420.11 307.3 420.668 313.124 420.704 318.963C420.655 319.508 420.764 320.055 421.018 320.54C421.227 320.829 421.51 321.056 421.837 321.198C423.982 322.219 426.47 320.796 428.257 319.232C431.569 316.333 434.372 312.443 434.56 308.048C434.526 306.916 434.565 305.782 434.679 304.656C434.97 303.001 435.937 301.559 436.789 300.111C438.24 297.646 439.409 295.026 440.277 292.301C440.602 291.277 440.819 289.988 440.016 289.274C439.731 289.051 439.408 288.883 439.062 288.778L429.375 285.185C428.536 284.874 426.447 290.234 426.116 290.819C425.305 292.253 424.499 293.067 422.872 293.397C421.211 293.735 419.234 293.251 417.685 294.078C415.064 295.478 416.377 297.188 417.861 298.683Z" fill="#535070"/>
<path d="M402.915 301.991C402.735 301.633 402.484 301.315 402.178 301.057C401.729 300.773 401.219 300.6 400.691 300.552C398.847 300.239 396.661 300.033 395.388 301.403C394.195 302.686 394.4 304.778 393.403 306.219C393.087 306.675 392.659 307.051 392.385 307.533C392.045 308.27 391.892 309.08 391.939 309.891C391.887 312.124 391.836 314.361 391.99 316.589C392.12 318.456 392.435 320.413 393.604 321.876C395.48 324.224 398.863 324.562 401.867 324.714L404.299 324.838C404.969 324.919 405.649 324.857 406.293 324.655C406.692 324.471 407.049 324.209 407.344 323.884C407.64 323.56 407.867 323.179 408.012 322.765C409.279 319.621 407.273 316.234 406.038 313.077C404.618 309.449 404.873 305.421 402.915 301.991Z" fill="#535070"/>
<path d="M382.783 70.5847C382.753 70.2659 382.8 69.9447 382.919 69.6477C383.276 69.0184 384.206 69.1897 384.908 69.3664C387.73 70.0773 390.704 69.4338 393.61 69.5999C396.516 69.7659 399.789 71.2172 400.373 74.0658C402.482 72.572 404.3 70.7057 405.738 68.5588C406.544 67.3531 407.247 65.9721 407.138 64.5261C406.979 62.4405 405.228 60.8808 403.606 59.5581L398.771 55.6153C398.137 55.0327 397.404 54.5672 396.607 54.2404C395.49 53.8593 394.273 54.0409 393.093 54.0416C389.574 54.0439 385.822 52.4439 382.692 54.0512C381.384 54.7226 380.4 55.8732 379.452 56.995L375.137 62.0977C374.812 62.4229 374.575 62.8249 374.447 63.2662C374.324 63.8891 374.644 64.5038 374.756 65.1287C374.96 66.2686 374.469 67.4852 374.846 68.58C375.474 70.3974 377.682 70.6546 379.033 71.6965C379.536 72.0848 380.325 73.4008 380.924 73.3848C382.006 73.3558 382.754 71.4244 382.783 70.5847Z" fill="#3F3D56"/>
<path d="M390.104 85.6259C397.735 85.6259 403.921 79.4458 403.921 71.8222C403.921 64.1987 397.735 58.0186 390.104 58.0186C382.473 58.0186 376.287 64.1987 376.287 71.8222C376.287 79.4458 382.473 85.6259 390.104 85.6259Z" fill="#A0616A"/>
<path d="M393.34 102.032C392.872 100.69 391.987 99.5329 390.816 98.7274C389.644 97.9219 388.246 97.5102 386.824 97.552C386.417 97.6276 385.997 97.5745 385.622 97.4001C385.41 97.2373 385.241 97.0256 385.128 96.7831C384.288 95.2738 383.613 93.6786 383.114 92.0251C382.893 91.2944 382.592 90.4331 381.852 90.2431C381.546 90.2031 381.234 90.2469 380.951 90.37C380.668 90.4931 380.423 90.6909 380.244 90.942C379.892 91.4476 379.508 91.9297 379.094 92.3854C377.356 93.9377 374.276 92.5228 372.431 93.947C372.13 94.1796 371.881 94.4776 371.565 94.6892C371.248 94.8797 370.907 95.0259 370.55 95.1237C366.989 96.2854 363.497 97.6516 360.093 99.2155C361.32 106.597 362.577 114.107 365.453 121.016C366.822 124.304 368.372 127.524 369.468 130.913C371.897 138.42 372.004 146.453 372.032 154.343C372.05 159.742 372.023 165.257 370.275 170.367C369.804 171.496 369.473 172.678 369.287 173.887C369.181 175.104 369.536 176.447 370.524 177.168C371.096 177.542 371.751 177.772 372.432 177.838C375.462 178.282 378.517 177.476 381.5 176.786C389.497 174.936 397.653 173.877 405.793 172.821L419.434 171.052C420.411 170.986 421.368 170.739 422.256 170.323C424.752 168.958 424.989 165.207 423.439 162.823C422.696 161.68 421.647 160.742 421.023 159.53C420.398 158.319 420.345 156.624 421.42 155.785C423.607 154.077 422.954 150.91 423.059 148.139C423.35 140.393 423.311 132.643 422.94 124.891C422.831 123.286 422.805 121.677 422.863 120.069C423.106 117.345 423.61 114.651 424.368 112.023L428.513 95.7198C427.43 94.0104 425.357 92.926 423.393 92.4336C421.429 91.9412 419.383 91.7963 417.449 91.1976C413.487 89.971 409.959 86.8581 405.821 87.1483C405.508 87.1539 405.201 87.229 404.92 87.3681C403.987 87.8963 404.135 89.2399 404.075 90.3098C403.943 92.6769 402.2 94.6553 400.276 96.0424C398.351 97.4295 396.153 98.4409 394.386 100.023C394.072 100.259 393.816 100.561 393.635 100.909C393.454 101.257 393.354 101.64 393.34 102.032Z" fill="#3F3D56"/>
<path d="M338.592 117.496C337.676 118.09 336.702 118.591 335.685 118.99C334.69 119.286 333.75 119.742 332.901 120.34C332.51 120.678 332.183 121.083 331.933 121.535C331.466 122.364 331.229 123.303 331.248 124.254C331.268 125.205 331.542 126.133 332.044 126.942C332.545 127.751 333.254 128.411 334.097 128.852C334.941 129.294 335.887 129.501 336.838 129.453C338.102 129.311 339.331 128.945 340.466 128.372L350.211 124.153C351.861 123.439 353.642 122.602 354.422 120.984C354.513 120.833 354.546 120.655 354.517 120.481C354.438 120.298 354.296 120.148 354.117 120.061C351.918 118.635 349.996 116.824 348.442 114.715C348.042 114.173 347.553 112.892 346.988 112.567C344.925 111.38 340.243 116.426 338.592 117.496Z" fill="#A0616A"/>
<path d="M442.776 114.034L446.369 118.135C447.14 119.015 447.912 119.896 448.615 120.832C450.342 123.209 451.727 125.816 452.73 128.577C453.511 130.624 454.159 132.805 453.887 134.979C453.705 136.093 453.404 137.185 452.988 138.235C452.329 140.254 451.513 142.218 450.546 144.109C449.733 145.546 448.815 146.921 447.799 148.222C445.017 151.906 441.973 155.384 438.691 158.63C437.463 159.845 436.948 161.809 436.413 163.451C435.427 166.48 433.08 168.839 430.81 171.076C430.081 171.845 429.275 172.538 428.405 173.144C427.101 173.983 425.578 174.416 424.027 174.389C423.348 174.394 422.676 174.255 422.055 173.982C420.502 173.245 419.713 171.451 419.551 169.741C419.407 168.189 419.667 166.627 420.307 165.205C422.368 160.642 427.663 158.665 431.405 155.336C433.6 153.384 435.278 150.932 436.933 148.506C438.057 146.992 438.996 145.348 439.729 143.611C440.564 141.383 440.239 138.745 440.969 136.481C441.278 135.524 441.827 134.659 442.158 133.71C442.49 132.76 442.574 131.633 441.993 130.811C441.555 130.289 440.997 129.881 440.367 129.622C437.976 128.409 435.298 126.849 434.841 124.21C434.658 122.747 435.041 121.269 435.911 120.077C436.778 118.902 437.791 117.841 438.926 116.921C439.972 115.997 441.73 114.958 442.776 114.034Z" fill="#A0616A"/>
<path d="M336.285 123.22C335.651 121.94 334.858 120.633 333.577 119.997C332.957 119.728 332.288 119.587 331.611 119.585C330.934 119.582 330.264 119.716 329.641 119.98C328.4 120.515 327.238 121.217 326.187 122.067L323.09 124.348C322.388 124.808 321.767 125.381 321.252 126.043C320.763 126.847 320.438 127.739 320.294 128.668C319.754 130.787 319.59 132.984 319.807 135.16C320.299 138.649 322.404 141.695 324.722 144.351C326.17 146.011 327.958 147.685 330.161 147.756C331.111 147.787 332.169 147.412 332.564 146.548C332.701 146.205 332.774 145.84 332.779 145.472C333.017 141.58 331.623 137.779 329.998 134.234C329.48 133.306 329.174 132.275 329.102 131.214C329.09 131.036 329.137 130.858 329.234 130.709C329.374 130.563 329.562 130.471 329.763 130.451C331.987 130.011 335.818 131.737 337.378 129.27C338.39 127.67 337.004 124.671 336.285 123.22Z" fill="#A0616A"/>
<path d="M382.058 66.2412C382.028 65.9224 382.075 65.6012 382.195 65.3042C382.551 64.6749 383.481 64.8461 384.183 65.0229C387.005 65.7337 389.979 65.0903 392.885 65.2564C395.791 65.4224 399.064 66.8737 399.648 69.7223C401.758 68.2285 403.576 66.3622 405.013 64.2153C405.82 63.0096 406.523 61.6286 406.413 60.1826C406.255 58.0971 404.503 56.5373 402.881 55.2146L398.047 51.2718C397.412 50.6892 396.679 50.2237 395.882 49.8969C394.766 49.5158 393.548 49.6974 392.368 49.6981C388.849 49.7004 385.097 48.1004 381.967 49.7077C380.66 50.3791 379.676 51.5297 378.727 52.6515L374.412 57.7542C374.087 58.0794 373.85 58.4814 373.722 58.9227C373.6 59.5456 373.92 60.1603 374.032 60.7852C374.235 61.9251 373.744 63.1417 374.122 64.2365C374.749 66.0539 376.958 66.3111 378.308 67.353C378.811 67.7413 379.6 69.0573 380.2 69.0413C381.282 69.0123 382.03 67.0809 382.058 66.2412Z" fill="#3F3D56"/>
<path d="M352.711 104.07C352.154 104.429 351.664 104.884 351.265 105.415C350.759 106.18 350.656 107.146 350.22 107.954C349.289 109.682 347.111 110.297 345.753 111.716C345.537 111.911 345.387 112.168 345.323 112.452C345.317 112.836 345.446 113.211 345.688 113.511L352.24 123.801C354.422 123.993 356.515 122.628 358.697 122.809C359.512 122.877 360.346 123.158 361.127 122.917C361.687 122.669 362.211 122.349 362.687 121.964C363.989 121.142 365.723 121.046 366.815 119.961C367.864 118.919 367.998 117.29 367.985 115.813C368.003 114.531 367.872 113.25 367.596 111.998C366.631 108.048 363.607 105.017 361.711 101.518C360.789 99.8144 360.286 98.8172 358.333 99.9868C356.37 101.162 354.559 102.72 352.711 104.07Z" fill="#3F3D56"/>
<path d="M432.286 98.8658C433.517 99.6646 434.627 100.636 435.582 101.75C436.58 103.036 437.145 104.61 438.104 105.925C439.033 107.2 440.299 108.187 441.353 109.361C442.952 111.142 444.034 113.314 445.098 115.457C442.5 118.841 439.668 122.039 436.622 125.026C436.283 125.425 435.837 125.719 435.336 125.871C434.995 125.908 434.65 125.859 434.333 125.729C434.015 125.6 433.735 125.394 433.516 125.13C433.044 124.636 432.71 124.026 432.259 123.512C431.194 122.415 429.775 121.73 428.253 121.577C426.744 121.431 425.226 121.41 423.714 121.515C423.382 121.551 423.047 121.495 422.745 121.352C422.521 121.197 422.339 120.989 422.216 120.746C420.442 117.73 421.013 113.944 421.639 110.502L423.075 102.605C423.283 101.097 423.685 99.6219 424.27 98.2162C424.814 97.0548 426.03 95.0855 427.526 95.4331C429.034 95.7836 431.017 97.9544 432.286 98.8658Z" fill="#3F3D56"/>
<path d="M169.417 150.719C181.482 150.719 191.263 140.93 191.263 128.855C191.263 116.779 181.482 106.99 169.417 106.99C157.351 106.99 147.571 116.779 147.571 128.855C147.571 140.93 157.351 150.719 169.417 150.719Z" fill="white"/>
<path d="M169.417 103.264C164.253 103.264 159.205 104.794 154.911 107.66C150.618 110.526 147.271 114.6 145.295 119.366C143.319 124.132 142.802 129.376 143.81 134.436C144.817 139.496 147.304 144.143 150.955 147.791C154.606 151.439 159.259 153.923 164.323 154.93C169.388 155.936 174.637 155.42 179.408 153.445C184.179 151.471 188.257 148.128 191.125 143.839C193.994 139.549 195.526 134.506 195.526 129.347C195.505 122.436 192.748 115.813 187.856 110.926C182.964 106.039 176.335 103.284 169.417 103.264ZM164.057 143.254L150.676 129.887L154.429 126.137L164.069 135.768L184.417 115.441L188.17 119.19L164.057 143.254L164.057 143.254Z" fill="#57B894"/>
</g>
<defs>
<clipPath id="clip0">
<rect width="540" height="324.861" fill="white"/>
</clipPath>
</defs>
</svg>
